<?xml version="1.0" encoding="utf-8"?>
<!-- Generator: Adobe Illustrator 24.1.2, SVG Export Plug-In . SVG Version: 6.00 Build 0)  -->
<svg version="1.1" id="Layer_1" xmlns="http://www.w3.org/2000/svg" xmlns:xlink="http://www.w3.org/1999/xlink" x="0px" y="0px"
	 viewBox="0 0 1080 1080" style="enable-background:new 0 0 1080 1080;" xml:space="preserve">
<style type="text/css">
	.st0{fill:#FFFFFF;}
	.st1{font-family:'Gadugi-Bold';}
	.st2{font-size:584.2867px;}
</style>
<g>
	<g>
		<ellipse cx="547.71" cy="540" rx="486.64" ry="466.52"/>
		<ellipse class="st0" cx="547.71" cy="528.37" rx="486.64" ry="433.84"/>
	</g>
	<text transform="matrix(1.0467 0 0 1 335.1432 769.0002)" class="st1 st2">R</text>
	<path d="M935.94,260.05"/>
	<g>
		<path d="M771.41,284.15c-4.24,3.71-83.53,70.97-169.25,45.75c-25.1-7.38-43.61-20.6-56.23-32.28c1.26-1.27,2.92-2.83,4.99-4.49
			c39.34-31.46,130.98-21.02,181.42,25.02c45.9,41.89,56.16,111.85,23.71,172.84c-13.16-11.21-30.73-29.91-39.38-56.72
			C700.46,384,722.45,326.4,771.41,284.15z"/>
		<g>
			<g>
				<polygon points="779.94,282.77 771.31,275.94 837.52,213.03 846.15,219.86 				"/>
				<polygon points="837.52,213.03 855.36,203.6 846.15,219.86 				"/>
				<path d="M771.31,275.94c-6.22,0.49-12.44,0.97-18.66,1.46c9,7.13,18,14.25,26.99,21.38c0.1-5.33,0.2-10.67,0.29-16
					L771.31,275.94z"/>
			</g>
			<path d="M837.45,212.97l-60.89-0.74c0,0,47.56,16.68,33.63,26.63L837.45,212.97z"/>
			<path d="M846.22,219.92l6.38,52.53c0,0-23.47-39.57-33.63-26.63L846.22,219.92z"/>
		</g>
	</g>
</g>
</svg>
